<svg width="400" height="200" xmlns="http://www.w3.org/2000/svg" viewBox="0 0 400 200">
  <!-- Green Elf -->
  <!-- Head -->
  <circle cx="100" cy="60" r="40" fill="#ffcc99" />
  <!-- Hat -->
  <path d="M60 50 Q100 -30 140 50 L130 50 Q100 20 70 50 Z" fill="#228B22" />
  <circle cx="100" cy="10" r="8" fill="#ffffff" />
  <!-- Ears -->
  <path d="M60 60 Q20 60 40 90 Q20 100 60 90 Z" fill="#ffcc99" />
  <path d="M140 60 Q180 60 160 90 Q180 100 140 90 Z" fill="#ffcc99" />
  <!-- Face -->
  <circle cx="85" cy="55" r="5" fill="#000000" />
  <circle cx="115" cy="55" r="5" fill="#000000" />
  <path d="M80 75 Q100 90 120 75" fill="none" stroke="#000000" stroke-width="2" />
  <!-- Body -->
  <rect x="70" y="100" width="60" height="80" fill="#006400" />
  <rect x="80" y="120" width="40" height="10" fill="#228B22" />

  <!-- Red Elf -->
  <!-- Head -->
  <circle cx="300" cy="60" r="40" fill="#ffcc99" />
  <!-- Hat -->
  <path d="M260 50 Q300 -30 340 50 L330 50 Q300 20 270 50 Z" fill="#B22222" />
  <circle cx="300" cy="10" r="8" fill="#ffffff" />
  <!-- Ears -->
  <path d="M260 60 Q220 60 240 90 Q220 100 260 90 Z" fill="#ffcc99" />
  <path d="M340 60 Q380 60 360 90 Q380 100 340 90 Z" fill="#ffcc99" />
  <!-- Face -->
  <circle cx="285" cy="55" r="5" fill="#000000" />
  <circle cx="315" cy="55" r="5" fill="#000000" />
  <path d="M280 75 Q300 90 320 75" fill="none" stroke="#000000" stroke-width="2" />
  <!-- Body -->
  <rect x="270" y="100" width="60" height="80" fill="#8B0000" />
  <rect x="280" y="120" width="40" height="10" fill="#B22222" />
</svg>