<svg width="400" height="300" xmlns="http://www.w3.org/2000/svg" viewBox="0 0 400 300">
  <!-- Green Elf -->
  <!-- Head -->
  <circle cx="100" cy="80" r="40" fill="#ffcc99" />
  <!-- Hat -->
  <path d="M60 70 Q100 -40 140 70 L130 70 Q100 30 70 70 Z" fill="#228B22" />
  <circle cx="100" cy="10" r="10" fill="#ffffff" />
  <!-- Ears -->
  <path d="M60 80 Q10 80 40 120 Q10 130 60 120 Z" fill="#ffcc99" />
  <path d="M140 80 Q190 80 160 120 Q190 130 140 120 Z" fill="#ffcc99" />
  <!-- Face -->
  <circle cx="85" cy="70" r="7" fill="#000000" />
  <circle cx="115" cy="70" r="7" fill="#000000" />
  <path d="M80 95 Q100 110 120 95" fill="none" stroke="#000000" stroke-width="2" />
  <!-- Tongue -->
  <path d="M95 110 Q100 130 105 110 Z" fill="#ff6666" />
  <!-- Body -->
  <path d="M70 140 Q100 100 130 140 L120 200 Q100 180 80 200 Z" fill="#006400" />
  <!-- Arms -->
  <path d="M70 140 Q30 100 50 90 Q70 120 70 140 Z" fill="#228B22" />
  <path d="M130 140 Q170 100 150 90 Q130 120 130 140 Z" fill="#228B22" />
  <!-- Legs -->
  <path d="M80 200 Q60 250 70 260 Q80 240 90 200 Z" fill="#228B22" />
  <path d="M120 200 Q140 250 130 260 Q120 240 110 200 Z" fill="#228B22" />

  <!-- Red Elf -->
  <!-- Head -->
  <circle cx="300" cy="80" r="40" fill="#ffcc99" />
  <!-- Hat -->
  <path d="M260 70 Q300 -40 340 70 L330 70 Q300 30 270 70 Z" fill="#B22222" />
  <circle cx="300" cy="10" r="10" fill="#ffffff" />
  <!-- Ears -->
  <path d="M260 80 Q210 80 240 120 Q210 130 260 120 Z" fill="#ffcc99" />
  <path d="M340 80 Q390 80 360 120 Q390 130 340 120 Z" fill="#ffcc99" />
  <!-- Face -->
  <circle cx="285" cy="70" r="7" fill="#000000" />
  <circle cx="315" cy="70" r="7" fill="#000000" />
  <path d="M280 95 Q300 120 320 95" fill="none" stroke="#000000" stroke-width="2" />
  <!-- Crazy Mouth -->
  <path d="M280 95 Q300 140 320 95" fill="none" stroke="#B22222" stroke-width="3" />
  <!-- Body -->
  <path d="M270 140 Q300 100 330 140 L320 200 Q300 180 280 200 Z" fill="#8B0000" />
  <!-- Arms -->
  <path d="M270 140 Q230 80 250 70 Q270 110 270 140 Z" fill="#B22222" />
  <path d="M330 140 Q370 80 350 70 Q330 110 330 140 Z" fill="#B22222" />
  <!-- Legs -->
  <path d="M280 200 Q260 250 270 260 Q280 240 290 200 Z" fill="#B22222" />
  <path d="M320 200 Q340 250 330 260 Q320 240 310 200 Z" fill="#B22222" />
</svg>